<svg width="180" height="31" viewBox="0 0 180 31" fill="none" xmlns="http://www.w3.org/2000/svg">
<g clip-path="url(#clip0_202_709)">
<path d="M45.1999 24.1C40.0999 24.1 35.9999 20.4 35.3999 15.5H28.8999C29.4999 23.8 36.5999 30.4 45.1999 30.4C53.7999 30.4 60.8999 23.8 61.4999 15.5H54.9999C54.3999 20.3 50.1999 24.1 45.1999 24.1Z" fill="#00BBEC"/>
<path d="M19.2 9.3H7.1V0H0V29.2H7.1V15.5H19.2V29.2H26.3V0H19.2V9.3Z" fill="#00BBEC"/>
<path d="M167.4 29.8C173.8 29.8 179.2 25.3 179.2 18.4C179.2 11.6 173.8 7.09998 167.4 7.09998C160.9 7.09998 155.5 11.6 155.5 18.4C155.5 25.2 160.9 29.8 167.4 29.8ZM167.4 12.8C170.1 12.8 172.6 15 172.6 18.4C172.6 21.8 170.1 24 167.4 24C164.6 24 162.1 21.8 162.1 18.4C162.1 15.1 164.6 12.8 167.4 12.8Z" fill="#00BBEC"/>
<path d="M145.9 29.2H152.7V16C152.7 10.6 148.5 7 143.3 7C140.1 7 138.3 7.6 136.7 9.4H130.9V29.2H137.8V19.2C137.8 15 139.6 13.2 142.3 13.2C144.5 13.2 146 14.9 146 17.4V29.2H145.9Z" fill="#00BBEC"/>
<path d="M114.1 7C107.7 7 103 11.6 103 18.4C103 25.2 107.8 29.8 113.5 29.8C116.3 29.8 118.5 28.9 120.2 27.4V29.1H127.1V9.4H121.8C119.8 7.9 117.4 7 114.1 7ZM114.9 24C111.9 24 109.7 21.8 109.7 18.4C109.7 15.1 111.9 12.8 114.9 12.8C117.7 12.8 120.2 15.1 120.2 18.4C120.2 21.8 117.7 24 114.9 24Z" fill="#00BBEC"/>
<path d="M85.4 29.2V18.6C85.4 15 87.1 13.2 89.6 13.2C91.6 13.2 93.2 14.7 93.2 17.2V29.2H100V15.7C100 10.5 95.8 7 91.2 7C87.9 7 85.1 8.4 83.4 10.6C81.9 8.2 79.4 7 76.4 7C73.6 7 71.2 7.7 69.7 9.4H64V29.2H70.9V18.6C70.9 15 72.5 13.2 75 13.2C77.1 13.2 78.6 14.7 78.6 17.2V29.2H85.4Z" fill="#00BBEC"/>
</g>
<defs>
<clipPath id="clip0_202_709">
<rect width="179.2" height="30.4" fill="white"/>
</clipPath>
</defs>
</svg>
