<svg width="63" height="62" viewBox="0 0 63 62" fill="none" xmlns="http://www.w3.org/2000/svg">
<path fill-rule="evenodd" clip-rule="evenodd" d="M0.0263672 31C0.0263672 13.8792 13.9055 0 31.0264 0C48.1472 0 62.0264 13.8792 62.0264 31C62.0264 48.1208 48.1472 62 31.0264 62C13.9055 62 0.0263672 48.1208 0.0263672 31Z" fill="#008562"/>
<path fill-rule="evenodd" clip-rule="evenodd" d="M45.9931 19.8483C47.0937 20.9489 47.0937 22.7332 45.9931 23.8338L28.5003 42.152C27.3998 43.2525 25.6154 43.2525 24.5148 42.152L16.0603 33.6974C14.9597 32.5969 14.9597 30.8125 16.0603 29.7119C17.1609 28.6114 18.9452 28.6114 20.0458 29.7119L26.5076 36.1737L42.0076 19.8483C43.1082 18.7477 44.8925 18.7477 45.9931 19.8483Z" fill="white"/>
</svg>
