<svg width="62" height="13" viewBox="0 0 62 13" fill="none" xmlns="http://www.w3.org/2000/svg">
<g clip-path="url(#clip0_307_1404)">
<path d="M8.74471 1.45418H11.6829C10.686 3.41644 9.19944 6.34232 7.24062 10.2668C7.03075 10.6873 6.71594 11.0202 6.33117 11.283C5.92891 11.5458 5.50917 11.6685 5.05444 11.6685H3.55035C3.25303 10.3194 2.95571 8.97035 2.65839 7.62129C2.36107 6.27224 2.06375 4.92318 1.76643 3.57412C1.62652 2.96092 1.41664 2.47035 1.11932 2.10243C0.804513 1.7345 0.437236 1.52426 0 1.45418H4.19746C4.49478 2.83827 4.967 4.92318 5.59661 7.69138C6.1213 6.65768 6.64598 5.62399 7.17066 4.57278C7.69535 3.52156 8.22003 2.48787 8.74471 1.45418Z" fill="black" fill-opacity="0.2"/>
<path d="M15.4607 8.53235C15.2333 7.48113 14.9884 6.44744 14.7611 5.41375C13.3619 8.18194 12.3126 10.2668 11.613 11.6509H7.41553C7.87025 11.5809 8.30749 11.3531 8.69226 11.0027C9.09451 10.6348 9.4443 10.1442 9.75911 9.531C10.4412 8.18194 11.1233 6.83288 11.7879 5.48383C12.47 4.13477 13.1521 2.80323 13.8167 1.45418H15.3207C15.758 1.45418 16.1427 1.57682 16.475 1.83962C16.8073 2.08491 17.0172 2.41779 17.1047 2.8558C17.9791 6.78032 18.6262 9.7062 19.081 11.6685H16.1602C15.9154 10.6173 15.688 9.58356 15.4607 8.53235Z" fill="black" fill-opacity="0.2"/>
<path d="M30.3267 1.45418H32.0932C31.7784 3.71429 31.3062 7.11321 30.659 11.6685H27.8957C28.0706 10.4596 28.3155 8.65499 28.6478 6.25472C27.9657 7.13073 26.9338 8.42722 25.5521 10.1792C25.1149 9.30323 24.4503 8.00674 23.5583 6.25472C23.3834 7.46361 23.1386 9.26819 22.8063 11.6685H20.043C20.3578 9.39084 20.8475 5.99191 21.4771 1.45418H23.2435C23.5409 1.45418 23.8032 1.52426 24.0306 1.66442C24.2754 1.80458 24.4503 1.9973 24.5552 2.22507C24.9225 2.96092 25.4822 4.04717 26.2167 5.50135C26.7939 4.7655 27.6509 3.67925 28.7877 2.22507C28.9801 1.97978 29.2074 1.78706 29.4698 1.66442C29.7671 1.52426 30.0469 1.45418 30.3267 1.45418Z" fill="black" fill-opacity="0.2"/>
<path d="M37.8993 1.22642C39.3859 1.22642 40.5053 1.61186 41.2398 2.40027C41.9744 3.17116 42.2542 4.23989 42.0618 5.60647C42.0093 6.02696 41.9219 6.64016 41.7995 7.48113C41.6071 8.84771 41.0299 9.91644 40.068 10.6873C39.1061 11.4582 37.8818 11.8437 36.3952 11.8437C34.9086 11.8437 33.8068 11.4582 33.0548 10.6873C32.3202 9.89892 32.0404 8.83019 32.2328 7.48113C32.2852 7.06065 32.3727 6.44744 32.4951 5.60647C32.6875 4.23989 33.2646 3.17116 34.2266 2.40027C35.1885 1.61186 36.4127 1.22642 37.8993 1.22642ZM38.9137 7.55121C38.9837 7.11321 39.0711 6.42992 39.1936 5.53639C39.2635 4.99326 39.1586 4.55526 38.8787 4.23989C38.5814 3.92453 38.1267 3.76685 37.5321 3.76685C36.9374 3.76685 36.4477 3.92453 36.0629 4.23989C35.6782 4.55526 35.4508 4.97574 35.3634 5.53639C35.2934 5.97439 35.206 6.65768 35.0835 7.55121C35.0136 8.09434 35.1185 8.53235 35.4158 8.84771C35.7132 9.16307 36.1504 9.32076 36.745 9.32076C37.3397 9.32076 37.8294 9.16307 38.2141 8.84771C38.6164 8.53235 38.8438 8.09434 38.9137 7.55121Z" fill="black" fill-opacity="0.2"/>
<path d="M55.0916 3.99461H53.9373C53.7799 5.13342 53.535 6.83289 53.2202 9.11051H54.3745C54.9692 9.11051 55.4589 8.95283 55.8436 8.63747C56.2284 8.3221 56.4558 7.90162 56.5432 7.34097C56.5957 6.97305 56.6656 6.44744 56.7706 5.74663C56.8405 5.2035 56.7356 4.7655 56.4383 4.45014C56.1235 4.15229 55.6862 3.99461 55.0916 3.99461Z" fill="black" fill-opacity="0.2"/>
<path d="M57.9599 0H43.7935L41.9746 13H45.0353C45.385 10.3895 45.8922 6.55256 46.2071 4.20485C46.2945 3.53908 46.277 2.97844 46.1196 2.50539C45.9622 2.03235 45.6999 1.68194 45.3326 1.45418H49.3726C49.0928 3.41644 48.4457 8.67251 47.8685 13H60.7932L61.965 4.62534C62.3148 2.17251 60.4259 0 57.9599 0ZM59.6389 5.81671C59.5865 6.13208 59.534 6.62264 59.4291 7.27089C59.2367 8.63747 58.6595 9.7062 57.6976 10.4771C56.7357 11.248 55.5114 11.6334 54.0248 11.6334H50.0897C50.3171 9.98652 50.6669 7.49865 51.1391 4.18733C51.2265 3.52156 51.209 2.96092 51.0516 2.48787C50.8942 2.01482 50.6319 1.66442 50.2646 1.43666H52.8705H55.4764C56.963 1.43666 58.0649 1.8221 58.8169 2.59299C59.534 3.39892 59.8138 4.46766 59.6389 5.81671Z" fill="black" fill-opacity="0.2"/>
</g>
<defs>
<clipPath id="clip0_307_1404">
<rect width="62" height="13" fill="white"/>
</clipPath>
</defs>
</svg>
